<svg id="Group_499" data-name="Group 499" xmlns="http://www.w3.org/2000/svg" width="32.856" height="32.856" viewBox="0 0 32.856 32.856">
  <path id="Path_1109" data-name="Path 1109" d="M1185,2634.285c.185-1.07.354-2.143.559-3.209a4.91,4.91,0,0,1,3.659-4.111c1.142-.325,2.314-.548,3.454-.88,1.362-.4,2.7-.858,4.125-1.313l2.527,7.4c.464-1.587.884-2.96,1.245-4.348.047-.179-.242-.43-.333-.664-.166-.427-.48-.9-.405-1.292.108-.562.713-.644,1.252-.636a4.229,4.229,0,0,1,1.089.022c.384.112.9.3,1.034.6a1.309,1.309,0,0,1-.248,1.165,1.251,1.251,0,0,0-.274,1.438c.371,1.166.7,2.345,1.1,3.707.815-2.629,1.572-5.072,2.347-7.575,2.047,1.269,4.34,1.529,6.537,2.084,3.167.8,4.378,2.157,4.786,5.411.093.74.269,1.469.406,2.2v.73a2.182,2.182,0,0,1-1.606,1.314h-29.643a1.982,1.982,0,0,1-1.606-1.461Z" transform="translate(-1185 -2603.473)" fill="#af0808"/>
  <path id="Path_1110" data-name="Path 1110" d="M1253.327,2480c.776.176,1.573.29,2.324.542a5.606,5.606,0,0,1,4.08,5.793c-.01.632-.039,1.265-.059,1.9s-.2,1.271.515,1.737c.212.138.262.67.227,1.006a3.244,3.244,0,0,1-.4,1.314c-1,1.663-1.959,3.369-3.121,4.918-1.783,2.375-4.7,2.936-6.88,1.373a9.684,9.684,0,0,1-2.087-2.207,37.011,37.011,0,0,1-2.336-3.694,5.719,5.719,0,0,1-.583-1.913,1.136,1.136,0,0,1,.376-.958c.609-.345.517-.815.51-1.354a21,21,0,0,1,.085-3.638,6,6,0,0,1,5.475-4.68c.236-.026.468-.09.7-.137Zm-6.077,10.078c-.263,0-.408-.01-.551,0-.8.066-1.076.455-.861,1.22a2.524,2.524,0,0,0,.259.676c1.019,1.6,1.96,3.251,3.1,4.752,1.984,2.6,5.12,2.573,7.083-.052,1.029-1.375,1.873-2.89,2.781-4.354a4.654,4.654,0,0,0,.481-1.053c.241-.769.08-.97-.714-1-.226-.009-.451-.035-.7-.056.175-.86.332-1.626.49-2.4a2.552,2.552,0,0,0-.318-.055,12.468,12.468,0,0,1-8.083-2.814,1.545,1.545,0,0,0-1.146-.228,2.854,2.854,0,0,0-2.058,2.9C1247.092,2488.4,1247.167,2489.2,1247.25,2490.078Z" transform="translate(-1236.242 -2480)" fill="#af0808"/>
</svg>
